<?xml version="1.0" encoding="utf-8"?>
<!-- CoFarmer App Icon - Full icon with gradient and E logo with cutout -->
<svg version="1.1" xmlns="http://www.w3.org/2000/svg" x="0px" y="0px"
     viewBox="0 0 512 512" style="enable-background:new 0 0 512 512;">
<defs>
    <linearGradient id="gradientBg" gradientUnits="userSpaceOnUse" x1="0" y1="110" x2="512" y2="402">
        <stop offset="0.15" style="stop-color:#04D288"/>
        <stop offset="0.85" style="stop-color:#0066CC"/>
    </linearGradient>
</defs>
<!-- Gradient background fills entire icon -->
<rect x="0" y="0" width="512" height="512" fill="url(#gradientBg)"/>
<!-- White E shape - scaled and centered -->
<g fill="#FFFFFF" transform="translate(116, 116) scale(1.5)">
    <!-- Bottom bar -->
    <path d="M95.6,111.8h-1.8h-4.7h-2.7H69.5h-10v7.5c0,1.4,1.1,2.5,2.5,2.5h7.5h22.7h2.7h8.8l-4.6-7.9C98.4,112.6,97,111.8,95.6,111.8z"/>
    <!-- Main body WITH cutout using evenodd fill rule -->
    <path fill-rule="evenodd" d="M76.9,101.9h3.3c1.5,0,2.9-0.8,3.7-2.1l3.6-6.1l17-29.5H92.9H81.1H69.5h-6.1c-2.1,0-3.9,1.7-3.9,3.9v6.1v27.7h10H76.9z M69.5,84.2V78c0-2.1,1.7-3.9,3.9-3.9h1.9h10.8L78,89.8c-0.7,1.3-2,2.1-3.5,2.1h-5V84.2z"/>
    <!-- Right arrow -->
    <path d="M117.6,64.2c-1.7,0-3.2,0.9-4,2.3l-10.3,17.4l-4.1,6.9c-0.8,1.4-0.8,3.1,0,4.5l4.1,6.9l10.6,17.9c0.7,1.1,1.8,1.8,3.1,1.8h9.5l-17-28.8l17-28.8H117.6z"/>
</g>
</svg>
